<svg width="146" height="146" viewBox="0 0 146 146" fill="none" xmlns="http://www.w3.org/2000/svg">
<g clip-path="url(#clip0_1882_202)">
<path d="M100.375 36.4999V106.458C100.375 119.902 89.486 130.792 76.0418 130.792C62.5977 130.792 51.7085 119.902 51.7085 106.458V30.4166C51.7085 22.0216 58.5218 15.2083 66.9168 15.2083C75.3118 15.2083 82.1252 22.0216 82.1252 30.4166V94.2916C82.1252 97.6374 79.3877 100.375 76.0418 100.375C72.696 100.375 69.9585 97.6374 69.9585 94.2916V36.4999H60.8335V94.2916C60.8335 102.687 67.6468 109.5 76.0418 109.5C84.4368 109.5 91.2502 102.687 91.2502 94.2916V30.4166C91.2502 16.9724 80.361 6.08325 66.9168 6.08325C53.4727 6.08325 42.5835 16.9724 42.5835 30.4166V106.458C42.5835 124.952 57.5485 139.917 76.0418 139.917C94.5352 139.917 109.5 124.952 109.5 106.458V36.4999H100.375Z" fill="#80B99E"/>
</g>
<defs>
<clipPath id="clip0_1882_202">
<rect width="146" height="146" fill="white"/>
</clipPath>
</defs>
</svg>
